<svg xmlns="http://www.w3.org/2000/svg" viewBox="0 0 256 256">
    <defs>
        <linearGradient id="bg" x1="0%" y1="0%" x2="100%" y2="100%">
            <stop offset="0%" stop-color="#1BA2E0" />
            <stop offset="100%" stop-color="#1592CC" />
        </linearGradient>
    </defs>
    <rect width="256" height="256" rx="56" fill="url(#bg)" />
    <!-- Kodi infinity/swirl mark -->
    <g transform="translate(128,128)">
        <path
            d="M-55,0 C-55,-35 -30,-55 0,-55 C30,-55 50,-35 50,-10 C50,15 30,35 5,35 C-5,35 -15,30 -20,22 L-20,50 L-40,50 L-40,-50 L-20,-50 L-20,-22 C-15,-30 -5,-35 5,-35 C20,-35 30,-25 30,-10 C30,5 20,15 5,15 C-10,15 -20,5 -20,-10 L-20,10 C-20,25 -35,35 -50,25"
            fill="none" stroke="#fff" stroke-width="0" />
        <!-- Simplified clean Kodi "K" letterform -->
        <path
            d="M-45,-55 L-45,55 L-15,55 L-15,10 L30,55 L65,55 L15,-5 L60,-55 L28,-55 L-15,-15 L-15,-55 Z"
            fill="#fff" />
    </g>
</svg>
